# xmcd CD database file
#
# Track frame offsets:
#	150
#	18991
#	38112
#	56438
#	64764
#	83933
#	103336
#	118299
#	133924
#	150003
#	171429
#	190468
#	204268
#	221397
#	242097
#
# Disc length: 3443 seconds
#
# Revision: 1
# Processed by: cddbd v1.5.2PL0 Copyright (c) Steve Scherf et al.
# Submitted via: CDex 1.51
#
DISCID=d20d710f
DTITLE=Glee - STTW-3223
DYEAR=1900
DGENRE=Blues
TTITLE0=Glee - One
TTITLE1=Glee - Express Yourself
TTITLE2=Glee - I'll Stand By You
TTITLE3=Glee - I Say A Little Prayer
TTITLE4=Glee - Beautiful
TTITLE5=Glee - Keep Holding On
TTITLE6=Glee - Dancing With Myself
TTITLE7=Glee - Smile (Lily Allen Version)
TTITLE8=Glee - Physical
TTITLE9=Glee - Faithfully
TTITLE10=Glee - Taking Chances
TTITLE11=Glee - Don't Rain On My Parade
TTITLE12=Glee - You Can't Always Get What You Want
TTITLE13=Glee - Bust Your Windows
TTITLE14=Glee - Hello
EXTD=
EXTT0=
EXTT1=
EXTT2=
EXTT3=
EXTT4=
EXTT5=
EXTT6=
EXTT7=
EXTT8=
EXTT9=
EXTT10=
EXTT11=
EXTT12=
EXTT13=
EXTT14=
PLAYORDER=
